<svg width="160" height="186" viewBox="0 0 160 186" fill="none" xmlns="http://www.w3.org/2000/svg">
<path d="M151.586 20.5651V165.16C151.586 167.703 150.858 170.02 149.4 172.114C147.941 174.21 145.977 175.744 143.511 176.715C142.09 177.313 140.444 177.61 138.574 177.61C134.986 177.61 131.882 176.414 129.264 174.024L79.7935 126.457L30.3229 174.023C27.6299 176.489 24.5279 177.723 21.0118 177.723C19.2921 177.723 17.6462 177.388 16.0769 176.715C13.6095 175.744 11.6458 174.211 10.1877 172.117C8.73002 170.021 8 167.704 8 165.16V20.5635C8 18.0203 8.73003 15.7029 10.1877 13.6087C11.6458 11.5145 13.6095 9.98024 16.0769 9.00898C17.6478 8.33672 19.2921 8 21.0118 8H138.574V8.00157C140.295 8.00157 141.941 8.33829 143.511 9.01055C145.977 9.9826 147.942 11.5149 149.401 13.6103C150.857 15.7045 151.587 18.0218 151.586 20.5651V20.5651Z" stroke="white" stroke-width="15" stroke-miterlimit="10"/>
</svg>
