<svg width="17" height="17" viewBox="0 0 17 17" fill="none" xmlns="http://www.w3.org/2000/svg">
<path d="M16.5614 15.0353L12.1484 10.6033C13.9944 8.14729 13.7684 4.41529 11.6644 2.18229C9.64344 -0.0857124 6.03744 -0.686713 3.41444 0.857287C0.894437 2.26229 -0.511567 5.39929 0.172433 8.22429C0.816433 11.1753 3.62943 13.4973 6.65643 13.4533C8.05143 13.4603 9.44543 13.0053 10.5754 12.1853C12.0724 13.6843 13.5594 15.1933 15.0644 16.6873C15.9734 17.4943 17.5514 16.1363 16.6754 15.1613L16.5634 15.0343L16.5614 15.0353ZM6.71043 11.8703C4.11143 11.9423 1.71743 9.69929 1.59443 7.08929C1.39043 4.63929 3.16243 2.19929 5.56843 1.70329C7.88943 1.15029 10.4954 2.43429 11.4144 4.65929C12.4174 6.91029 11.5624 9.83529 9.42243 11.0953C8.61643 11.6003 7.66443 11.8753 6.71143 11.8703H6.71043Z" fill="#636363"/>
</svg>
